<svg width="32" height="32" viewBox="0 0 32 32" fill="none" xmlns="http://www.w3.org/2000/svg">
<path d="M14.442 7.9939H11.642C10.7583 7.9939 10.042 8.71024 10.042 9.5939V20.4139C10.042 21.2976 10.7583 22.0139 11.642 22.0139H14.442C15.3256 22.0139 16.042 21.2976 16.042 20.4139V9.5939C16.042 8.71024 15.3256 7.9939 14.442 7.9939Z" fill="#FFC0EC"/>
<path d="M22.1981 12.864H19.3981C18.5144 12.864 17.7981 13.5804 17.7981 14.464V20.414C17.7981 21.2977 18.5144 22.014 19.3981 22.014H22.1981C23.0818 22.014 23.7981 21.2977 23.7981 20.414V14.464C23.7981 13.5804 23.0818 12.864 22.1981 12.864Z" fill="#FFC0EC"/>
<path d="M25.706 23.89H8.08795V6.29995C8.08795 5.41595 7.37195 4.69995 6.48795 4.69995H6.29995C5.41595 4.69995 4.69995 5.41595 4.69995 6.29995V25.7C4.69995 26.584 5.41595 27.3 6.29995 27.3H6.48795C6.57395 27.3 6.65795 27.292 6.74195 27.278H25.706C26.59 27.278 27.306 26.562 27.306 25.678V25.49C27.306 24.606 26.59 23.89 25.706 23.89Z" fill="#886CFF"/>
</svg>
