<svg width="21" height="20" viewBox="0 0 21 20" fill="none" xmlns="http://www.w3.org/2000/svg">
<path d="M0 2.32323C0 1.64982 0.236493 1.09426 0.709459 0.656566C1.18243 0.218848 1.7973 0 2.55405 0C3.2973 0 3.89864 0.215475 4.35811 0.646465C4.83107 1.09091 5.06757 1.67002 5.06757 2.38384C5.06757 3.0303 4.83784 3.56901 4.37838 4C3.90541 4.44444 3.28378 4.66667 2.51351 4.66667H2.49324C1.74999 4.66667 1.14866 4.44444 0.689189 4C0.229723 3.55556 0 2.99663 0 2.32323ZM0.263514 20V6.50505H4.76351V20H0.263514ZM7.25676 20H11.7568V12.4646C11.7568 11.9933 11.8108 11.6296 11.9189 11.3737C12.1081 10.9158 12.3953 10.5286 12.7804 10.2121C13.1655 9.89562 13.6486 9.73737 14.2297 9.73737C15.7432 9.73737 16.5 10.7542 16.5 12.7879V20H21V12.2626C21 10.2694 20.527 8.75758 19.5811 7.72727C18.6351 6.69697 17.3851 6.18182 15.8311 6.18182C14.0878 6.18182 12.7297 6.92929 11.7568 8.42424V8.46465H11.7365L11.7568 8.42424V6.50505H7.25676C7.28378 6.93602 7.2973 8.27608 7.2973 10.5253C7.2973 12.7744 7.28378 15.9326 7.25676 20Z" fill="white"/>
</svg>
