<svg width="26" height="20" viewBox="0 0 26 20" fill="none" xmlns="http://www.w3.org/2000/svg">
<path d="M26 2.36769C25.0331 2.76923 24.0029 3.03538 22.9287 3.16462C24.0337 2.54 24.8771 1.55846 25.2736 0.375385C24.2434 0.956923 23.1059 1.36769 21.8936 1.59692C20.9154 0.610769 19.5211 0 18.0001 0C15.0491 0 12.6734 2.26769 12.6734 5.04769C12.6734 5.44769 12.7091 5.83231 12.7969 6.19846C8.3655 5.99385 4.44437 3.98308 1.81025 0.92C1.35037 1.67538 1.08063 2.54 1.08063 3.47077C1.08063 5.21846 2.03125 6.76769 3.44825 7.66462C2.59188 7.64923 1.75175 7.41385 1.04 7.04308C1.04 7.05846 1.04 7.07846 1.04 7.09846C1.04 9.55077 2.88762 11.5877 5.3105 12.0569C4.87662 12.1692 4.40375 12.2231 3.913 12.2231C3.57175 12.2231 3.22725 12.2046 2.90387 12.1369C3.5945 14.1354 5.55425 15.6046 7.8845 15.6523C6.071 16.9954 3.76838 17.8046 1.27562 17.8046C0.8385 17.8046 0.41925 17.7862 0 17.7354C2.36112 19.1769 5.15937 20 8.177 20C17.9855 20 23.348 12.3077 23.348 5.64C23.348 5.41692 23.3399 5.20154 23.3285 4.98769C24.3864 4.27692 25.2752 3.38923 26 2.36769Z" fill="white"/>
</svg>
